#N canvas 803 234 394 386 10;
#X obj 184 210 makefilename /visual/facade/%s;
#X obj 184 149 loadbang;
#X obj 85 274 l2s /;
#X obj 48 365 outlet;
#X obj 44 131 list split 1;
#X obj 48 246 list;
#X obj 49 178 t b a;
#X obj 44 106 list;
#X obj 48 307 list prepend;
#X obj 48 337 list trim;
#X obj 44 70 inlet lists;
#X text 20 15 make a facade osc message;
#X text 53 36 Creation arg: object name;
#X text 111 99 send in lists with the destination and data;
#X obj 184 176 list-onearg \$1;
#X obj 85 247 list prepend /visual/facade;
#X connect 0 0 15 1;
#X connect 1 0 14 0;
#X connect 2 0 8 1;
#X connect 4 0 6 0;
#X connect 4 1 5 1;
#X connect 5 0 8 0;
#X connect 6 0 5 0;
#X connect 6 1 15 0;
#X connect 7 0 4 0;
#X connect 8 0 9 0;
#X connect 9 0 3 0;
#X connect 10 0 7 0;
#X connect 14 0 0 0;
#X connect 15 0 2 0;
