#N canvas 356 429 589 285 10;
#X obj 135 233 facade-makemsg \$1;
#X obj 249 51 inlet control;
#X obj 249 124 int;
#X obj 249 152 clip 0 1;
#X msg 249 178 visible \$1;
#X obj 27 124 int;
#X obj 137 124 int;
#X obj 27 148 change;
#X obj 137 149 change;
#X obj 135 261 outlet;
#X msg 27 175 position/x \$1;
#X msg 137 176 position/y \$1;
#X obj 332 125 int;
#X obj 332 153 clip 0 1;
#X obj 27 99 inlet posx;
#X obj 137 97 inlet posy;
#X msg 332 179 center \$1;
#X obj 405 125 int;
#X obj 405 153 clip 0 1;
#X msg 405 179 animate \$1;
#X obj 482 125 int;
#X obj 482 153 clip 0 1;
#X obj 249 94 route visible center animate overlay;
#X msg 482 179 overlay \$1;
#X connect 0 0 9 0;
#X connect 1 0 22 0;
#X connect 2 0 3 0;
#X connect 3 0 4 0;
#X connect 4 0 0 0;
#X connect 5 0 7 0;
#X connect 6 0 8 0;
#X connect 7 0 10 0;
#X connect 8 0 11 0;
#X connect 10 0 0 0;
#X connect 11 0 0 0;
#X connect 12 0 13 0;
#X connect 13 0 16 0;
#X connect 14 0 5 0;
#X connect 15 0 6 0;
#X connect 16 0 0 0;
#X connect 17 0 18 0;
#X connect 18 0 19 0;
#X connect 19 0 0 0;
#X connect 20 0 21 0;
#X connect 21 0 23 0;
#X connect 22 0 2 0;
#X connect 22 1 12 0;
#X connect 22 2 17 0;
#X connect 22 3 20 0;
#X connect 23 0 0 0;
