#N canvas 233 110 489 361 10;
#X obj 46 209 int;
#X obj 147 222 int;
#X obj 273 175 int;
#X obj 46 233 change;
#X obj 147 247 change;
#X obj 273 199 change;
#X obj 138 16 inlet R;
#X obj 203 14 inlet G;
#X obj 273 15 inlet B;
#X obj 354 178 int;
#X obj 354 202 change;
#X obj 340 16 inlet A;
#X msg 47 261 color/R \$1;
#X msg 273 224 color/B \$1;
#X msg 354 227 color/A \$1;
#X msg 147 271 color/G \$1;
#X obj 108 305 facade-makemsg \$1;
#X obj 108 341 outlet;
#X obj 131 144 hsl 90 15 0 255 0 0 empty empty R 8 8 0 10 -262144 -1
-1 700 1;
#X obj 131 159 hsl 90 15 0 255 0 0 empty empty G 8 8 0 10 -262144 -1
-1 8600 1;
#X obj 131 174 hsl 90 15 0 255 0 0 empty empty B 8 8 0 10 -262144 -1
-1 8700 1;
#X obj 131 189 hsl 90 15 0 255 0 0 empty empty A 8 8 0 10 -262144 -1
-1 8900 1;
#X connect 0 0 3 0;
#X connect 1 0 4 0;
#X connect 2 0 5 0;
#X connect 3 0 12 0;
#X connect 4 0 15 0;
#X connect 5 0 13 0;
#X connect 6 0 18 0;
#X connect 7 0 19 0;
#X connect 8 0 20 0;
#X connect 9 0 10 0;
#X connect 10 0 14 0;
#X connect 11 0 21 0;
#X connect 12 0 16 0;
#X connect 13 0 16 0;
#X connect 14 0 16 0;
#X connect 15 0 16 0;
#X connect 16 0 17 0;
#X connect 18 0 0 0;
#X connect 19 0 1 0;
#X connect 20 0 2 0;
#X connect 21 0 9 0;
#X coords 0 -1 1 1 110 80 1 120 130;
