#N canvas 0 22 630 300 10;
#X obj 471 51 inlet control;
#X obj 471 124 int;
#X obj 471 152 clip 0 1;
#X msg 471 178 visible \$1;
#X obj 27 124 int;
#X obj 137 124 int;
#X obj 246 128 int;
#X obj 355 125 int;
#X obj 27 148 change;
#X obj 137 149 change;
#X obj 246 152 change;
#X obj 355 152 change;
#X obj 135 261 outlet;
#X msg 27 175 position/x \$1;
#X msg 137 176 position/y \$1;
#X obj 27 99 inlet posx;
#X obj 137 97 inlet posy;
#X obj 246 98 inlet w;
#X obj 355 94 inlet h;
#X msg 246 176 size/width \$1;
#X msg 355 176 size/height \$1;
#X obj 135 233 facade-makemsg \$1;
#X obj 471 94 route visible;
#X connect 0 0 22 0;
#X connect 1 0 2 0;
#X connect 2 0 3 0;
#X connect 3 0 21 0;
#X connect 4 0 8 0;
#X connect 5 0 9 0;
#X connect 6 0 10 0;
#X connect 7 0 11 0;
#X connect 8 0 13 0;
#X connect 9 0 14 0;
#X connect 10 0 19 0;
#X connect 11 0 20 0;
#X connect 13 0 21 0;
#X connect 14 0 21 0;
#X connect 15 0 4 0;
#X connect 16 0 5 0;
#X connect 17 0 6 0;
#X connect 18 0 7 0;
#X connect 19 0 21 0;
#X connect 20 0 21 0;
#X connect 21 0 12 0;
#X connect 22 0 1 0;
