#N canvas 0 22 445 299 10;
#X obj 277 54 inlet control;
#X obj 277 127 int;
#X obj 277 155 clip 0 1;
#X msg 277 181 visible \$1;
#X obj 27 124 int;
#X obj 137 124 int;
#X obj 27 148 change;
#X obj 137 149 change;
#X obj 135 261 outlet;
#X msg 27 175 position/x \$1;
#X msg 137 176 position/y \$1;
#X obj 27 99 inlet posx;
#X obj 137 97 inlet posy;
#X obj 135 233 facade-makemsg \$1;
#X obj 277 97 route visible center;
#X obj 358 127 int;
#X obj 358 155 clip 0 1;
#X msg 358 181 center \$1;
#X connect 0 0 14 0;
#X connect 1 0 2 0;
#X connect 2 0 3 0;
#X connect 3 0 13 0;
#X connect 4 0 6 0;
#X connect 5 0 7 0;
#X connect 6 0 9 0;
#X connect 7 0 10 0;
#X connect 9 0 13 0;
#X connect 10 0 13 0;
#X connect 11 0 4 0;
#X connect 12 0 5 0;
#X connect 13 0 8 0;
#X connect 14 0 1 0;
#X connect 14 1 15 0;
#X connect 15 0 16 0;
#X connect 16 0 17 0;
#X connect 17 0 13 0;
