#N canvas 482 120 450 300 10;
#X obj 28 163 udpsend;
#X obj 28 104 packOSC;
#X obj 28 136 spigot;
#X obj 101 153 t f;
#X msg 146 119 disconnect;
#X obj 146 57 sel 0 1;
#X obj 146 27 inlet onoff;
#X obj 28 66 inlet messages;
#X obj 28 198 outlet connected;
#X msg 165 88 connect 127.0.0.1 7000;
#X connect 0 0 3 0;
#X connect 0 0 8 0;
#X connect 1 0 2 0;
#X connect 2 0 0 0;
#X connect 3 0 2 1;
#X connect 4 0 0 0;
#X connect 5 0 4 0;
#X connect 5 1 9 0;
#X connect 6 0 5 0;
#X connect 7 0 1 0;
#X connect 9 0 0 0;
