#N canvas 0 22 429 329 10;
#X obj 145 244 facade-makemsg \$1;
#X obj 273 62 inlet control;
#X obj 273 105 route visible;
#X obj 273 135 int;
#X obj 273 163 clip 0 1;
#X msg 273 189 visible \$1;
#X obj 37 135 int;
#X obj 147 135 int;
#X obj 37 159 change;
#X obj 147 160 change;
#X obj 145 272 outlet;
#X obj 37 110 inlet posx;
#X obj 147 108 inlet posy;
#X msg 147 187 position/y \$1;
#X msg 37 186 position/x \$1;
#X connect 0 0 10 0;
#X connect 1 0 2 0;
#X connect 2 0 3 0;
#X connect 3 0 4 0;
#X connect 4 0 5 0;
#X connect 5 0 0 0;
#X connect 6 0 8 0;
#X connect 7 0 9 0;
#X connect 8 0 14 0;
#X connect 9 0 13 0;
#X connect 11 0 6 0;
#X connect 12 0 7 0;
#X connect 13 0 0 0;
#X connect 14 0 0 0;
