#N canvas 439 328 778 301 10;
#X obj 246 99 inlet pos2x;
#X obj 137 98 inlet pos1y;
#X obj 355 95 inlet pos2y;
#X obj 135 234 facade-makemsg \$1;
#X msg 137 177 position1/y \$1;
#X msg 246 177 position2/x \$1;
#X msg 355 177 position2/y \$1;
#X msg 27 176 position1/x \$1;
#X obj 471 52 inlet control;
#X obj 471 95 route visible;
#X obj 471 125 int;
#X obj 471 153 clip 0 1;
#X msg 471 179 visible \$1;
#X obj 27 125 int;
#X obj 137 125 int;
#X obj 246 129 int;
#X obj 355 126 int;
#X obj 27 149 change;
#X obj 137 150 change;
#X obj 246 153 change;
#X obj 355 153 change;
#X obj 135 262 outlet;
#X obj 27 100 inlet pos1x;
#X connect 0 0 15 0;
#X connect 1 0 14 0;
#X connect 2 0 16 0;
#X connect 3 0 21 0;
#X connect 4 0 3 0;
#X connect 5 0 3 0;
#X connect 6 0 3 0;
#X connect 7 0 3 0;
#X connect 8 0 9 0;
#X connect 9 0 10 0;
#X connect 10 0 11 0;
#X connect 11 0 12 0;
#X connect 12 0 3 0;
#X connect 13 0 17 0;
#X connect 14 0 18 0;
#X connect 15 0 19 0;
#X connect 16 0 20 0;
#X connect 17 0 7 0;
#X connect 18 0 4 0;
#X connect 19 0 5 0;
#X connect 20 0 6 0;
#X connect 22 0 13 0;
