#N canvas 427 316 729 289 10;
#X obj 125 223 facade-makemsg \$1;
#X obj 451 42 inlet control;
#X obj 451 115 int;
#X obj 451 143 clip 0 1;
#X msg 451 169 visible \$1;
#X obj 17 114 int;
#X obj 127 114 int;
#X obj 17 138 change;
#X obj 127 139 change;
#X obj 125 251 outlet;
#X msg 17 165 position/x \$1;
#X msg 127 166 position/y \$1;
#X obj 534 116 int;
#X obj 534 144 clip 0 1;
#X obj 17 89 inlet posx;
#X obj 127 87 inlet posy;
#X msg 534 170 center \$1;
#X obj 607 116 int;
#X obj 607 144 clip 0 1;
#X msg 607 170 filled \$1;
#X obj 451 85 route visible center filled;
#X obj 228 116 int;
#X obj 338 116 int;
#X obj 228 140 change;
#X obj 338 141 change;
#X msg 228 167 size/width \$1;
#X msg 338 168 size/height \$1;
#X obj 338 89 inlet height;
#X obj 228 91 inlet width;
#X connect 0 0 9 0;
#X connect 1 0 20 0;
#X connect 2 0 3 0;
#X connect 3 0 4 0;
#X connect 4 0 0 0;
#X connect 5 0 7 0;
#X connect 6 0 8 0;
#X connect 7 0 10 0;
#X connect 8 0 11 0;
#X connect 10 0 0 0;
#X connect 11 0 0 0;
#X connect 12 0 13 0;
#X connect 13 0 16 0;
#X connect 14 0 5 0;
#X connect 15 0 6 0;
#X connect 16 0 0 0;
#X connect 17 0 18 0;
#X connect 18 0 19 0;
#X connect 19 0 0 0;
#X connect 20 0 2 0;
#X connect 20 1 12 0;
#X connect 20 2 17 0;
#X connect 21 0 23 0;
#X connect 22 0 24 0;
#X connect 23 0 25 0;
#X connect 24 0 26 0;
#X connect 25 0 0 0;
#X connect 26 0 0 0;
#X connect 27 0 22 0;
#X connect 28 0 21 0;
