#N canvas 0 22 450 300 10;
#X obj 144 31 inlet;
#X obj 144 67 route prev next float;
#X obj 226 109 int;
#X obj 267 110 symbol;
#X obj 164 115 bng 15 250 50 0 empty empty next 17 7 0 10 -262144 -1
-1;
#X obj 112 115 bng 15 250 50 0 empty empty prev 17 7 0 10 -262144 -1
-1;
#X obj 170 205 facade-makemsg;
#X obj 170 238 outlet;
#X msg 267 149 scene \$1;
#X msg 172 148 scene/next;
#X msg 87 147 scene/prev;
#X connect 0 0 1 0;
#X connect 1 0 5 0;
#X connect 1 1 4 0;
#X connect 1 2 2 0;
#X connect 1 3 3 0;
#X connect 2 0 8 0;
#X connect 3 0 8 0;
#X connect 4 0 9 0;
#X connect 5 0 10 0;
#X connect 6 0 7 0;
#X connect 8 0 6 0;
#X connect 9 0 6 0;
#X connect 10 0 6 0;
#X coords 0 -1 1 1 110 40 1 100 100;
